<svg width="24" height="24" viewBox="0 0 24 24" fill="none" xmlns="http://www.w3.org/2000/svg">
<path d="M23.994 24L24 23.999V15.197C24 10.891 23.073 7.574 18.039 7.574C15.619 7.574 13.995 8.902 13.332 10.161H13.262V7.976H8.48904V23.999H13.459V16.065C13.459 13.976 13.855 11.956 16.442 11.956C18.991 11.956 19.029 14.34 19.029 16.199V24H23.994Z" fill="#E5E5E5"/>
<path d="M0.395994 7.977H5.37199V24H0.395994V7.977Z" fill="#E5E5E5"/>
<path d="M2.882 0C1.291 0 0 1.291 0 2.882C0 4.473 1.291 5.791 2.882 5.791C4.473 5.791 5.764 4.473 5.764 2.882C5.763 1.291 4.472 0 2.882 0Z" fill="#E5E5E5"/>
</svg>
