<svg width="22" height="22" viewBox="0 0 22 22" fill="none" xmlns="http://www.w3.org/2000/svg">
<path d="M21.9339 6.46483C21.8803 5.29392 21.6944 4.4943 21.4224 3.79471C21.1463 3.06071 20.7133 2.39586 20.1537 1.84633C19.6043 1.28672 18.9393 0.853507 18.2053 0.577229C17.5056 0.305483 16.7061 0.119676 15.5352 0.0664678C14.3621 0.0127564 13.9873 0 11 0C8.01266 0 7.63786 0.0127564 6.46478 0.0661321C5.29388 0.119676 4.49443 0.305651 3.79468 0.577565C3.06068 0.853675 2.39584 1.28672 1.84631 1.84633C1.28671 2.39569 0.8535 3.06054 0.577225 3.79454C0.305481 4.4943 0.119675 5.29392 0.0664673 6.46466C0.0127563 7.63792 0 8.01256 0 10.9999C0 13.9874 0.0127563 14.3622 0.0664673 15.5353C0.119843 16.7061 0.305817 17.5057 0.577728 18.2055C0.853836 18.9393 1.28688 19.6043 1.84648 20.1537C2.39584 20.7133 3.06085 21.1463 3.79485 21.4224C4.49443 21.6945 5.29405 21.8803 6.46495 21.9339C7.6382 21.9874 8.01283 22 11.0002 22C13.9875 22 14.3623 21.9874 15.5354 21.9339C16.7063 21.8803 17.5057 21.6945 18.2055 21.4224C19.683 20.8511 20.8511 19.683 21.4224 18.2055C21.6945 17.5057 21.8803 16.7061 21.9339 15.5353C21.9872 14.3621 22 13.9874 22 11.0001C22 8.01256 21.9872 7.63792 21.9339 6.46483ZM19.9538 15.4452C19.9049 16.5177 19.7257 17.1002 19.5751 17.4877C19.205 18.4472 18.4469 19.2053 17.4874 19.5754C17.0999 19.726 16.5175 19.9053 15.4449 19.9541C14.2853 20.0071 13.9373 20.0182 11 20.0182C8.06252 20.0182 7.71474 20.0071 6.55492 19.9541C5.48254 19.9053 4.90012 19.726 4.51239 19.5754C4.0347 19.399 3.60249 19.1179 3.24767 18.7525C2.88226 18.3976 2.60112 17.9656 2.42471 17.4877C2.27415 17.1002 2.09489 16.5177 2.04605 15.4452C1.99318 14.2854 1.98193 13.9374 1.98193 11.0003C1.98193 8.06291 1.99318 7.71513 2.04605 6.55513C2.09506 5.48259 2.27415 4.90015 2.42471 4.51259C2.60112 4.03473 2.88243 3.60252 3.24767 3.24769C3.60249 2.88229 4.0347 2.60114 4.51256 2.4249C4.90012 2.27417 5.48254 2.09508 6.55508 2.04607C7.7149 1.99319 8.06285 1.98195 11 1.98195C13.9371 1.98195 14.2849 1.99319 15.4449 2.04623C16.5175 2.09508 17.0997 2.27434 17.4874 2.4249C17.9651 2.60131 18.3973 2.88245 18.7522 3.24769C19.1176 3.60252 19.3987 4.03473 19.575 4.51259C19.7257 4.90015 19.9049 5.48259 19.9538 6.55513C20.0067 7.71496 20.0179 8.06291 20.0179 11.0001C20.0179 13.9374 20.0068 14.2852 19.9538 15.4452Z" fill="#E5E5E5"/>
<path d="M10.9998 5.35133C7.88023 5.35133 5.35129 7.88046 5.35129 11.0001C5.35129 14.1197 7.88023 16.6487 10.9998 16.6487C14.1196 16.6487 16.6485 14.1197 16.6485 11.0001C16.6485 7.88046 14.1196 5.35133 10.9998 5.35133ZM10.9998 14.6667C8.97493 14.6666 7.33322 13.025 7.33339 10.9999C7.33339 8.975 8.97493 7.33328 11 7.33328C13.0251 7.33345 14.6666 8.975 14.6666 10.9999C14.6666 13.025 13.0249 14.6667 10.9998 14.6667Z" fill="#E5E5E5"/>
<path d="M18.1917 5.12826C18.1917 5.85722 17.6007 6.44822 16.8718 6.44822C16.1427 6.44822 15.5517 5.85722 15.5517 5.12826C15.5517 4.39913 16.1427 3.80813 16.8718 3.80813C17.6007 3.80813 18.1917 4.39913 18.1917 5.12826Z" fill="#E5E5E5"/>
</svg>
